<svg width="21" height="20" viewBox="0 0 21 20" fill="none" xmlns="http://www.w3.org/2000/svg">
    <path fill-rule="evenodd" clip-rule="evenodd" d="M12.7145 4.80635C12.7145 3.28978 14.0737 2.06036 15.7502 2.06036C17.4268 2.06036 18.7859 3.28978 18.7859 4.80635C18.7859 6.3229 17.4268 7.55233 15.7502 7.55233C14.0737 7.55233 12.7145 6.3229 12.7145 4.80635ZM15.7502 3.6295C15.0317 3.6295 14.4492 4.15639 14.4492 4.80635C14.4492 5.45629 15.0317 5.98319 15.7502 5.98319C16.4688 5.98319 17.0512 5.45629 17.0512 4.80635C17.0512 4.15639 16.4688 3.6295 15.7502 3.6295ZM8.52899 5.63331C8.74444 5.56583 8.98061 5.5778 9.18638 5.66664L13.9555 7.72558C14.2297 7.84398 14.4154 8.08358 14.4451 8.35715C14.4747 8.63072 14.3439 8.89837 14.1002 9.06266L10.3232 11.6095L14.0588 13.8339C14.2587 13.9529 14.3953 14.1414 14.4364 14.3547C14.4774 14.5679 14.4192 14.7871 14.2755 14.9602L11.2434 18.6142C10.9558 18.9607 10.4122 19.0308 10.029 18.7707C9.64594 18.5105 9.56849 18.0187 9.85606 17.6722L12.3343 14.6857L8.33587 12.3047C8.09963 12.1641 7.95406 11.928 7.9458 11.6723C7.93754 11.4166 8.06764 11.1733 8.2944 11.0204L11.9111 8.58166L8.76032 7.22139L5.62583 8.20313C5.17317 8.3449 4.67917 8.12791 4.52243 7.71846C4.3657 7.309 4.60559 6.86214 5.05825 6.72037L8.52899 5.63331ZM19.8516 7.19782C20.1796 7.5136 20.1626 8.01012 19.8135 8.30682L17.2121 10.5177C16.9393 10.7496 16.5327 10.797 16.2038 10.6352L15.0409 10.0631C14.62 9.85608 14.4644 9.37968 14.6933 8.99902C14.9221 8.61837 15.4488 8.47761 15.8696 8.68462L16.4815 8.98562L18.6256 7.16328C18.9747 6.86657 19.5236 6.88204 19.8516 7.19782ZM7.96938 12.6333C8.35091 12.8954 8.4254 13.3875 8.13576 13.7326L6.84787 15.2672C6.7759 15.3529 6.68518 15.4244 6.58136 15.477L2.29865 17.65C1.88086 17.862 1.35221 17.7274 1.11787 17.3495C0.883524 16.9716 1.03224 16.4934 1.45003 16.2814L5.57534 14.1884L6.7541 12.7838C7.04375 12.4387 7.58785 12.3713 7.96938 12.6333Z" fill="white"/>
</svg>
