<svg width="964" height="964" viewBox="0 0 964 964" fill="none" xmlns="http://www.w3.org/2000/svg">
<path fill-rule="evenodd" clip-rule="evenodd" d="M901.335 755.79C896.194 764.572 890.623 772.927 884.625 780.852C878.84 788.992 872.627 796.811 865.986 804.308C859.345 812.02 852.489 819.41 845.419 826.479C838.135 833.333 830.637 840.081 822.924 846.721C815.212 853.147 807.285 859.359 799.144 865.357C791.003 871.355 782.755 877.032 774.399 882.387C765.83 887.956 757.26 893.204 748.691 898.131C739.907 903.058 731.016 907.77 722.018 912.269C713.234 916.553 704.343 920.623 695.345 924.479C686.347 928.334 677.242 931.976 668.03 935.403C658.818 938.831 649.606 941.83 640.393 944.4C631.181 947.185 621.969 949.755 612.757 952.112C603.544 954.254 594.225 956.074 584.799 957.574C575.586 959.287 566.374 960.68 557.162 961.751C547.735 962.608 538.416 963.25 529.204 963.679C519.777 964.107 510.458 964.107 501.246 963.679C492.033 963.465 482.821 962.929 473.609 962.072C464.397 961.215 455.292 959.93 446.294 958.216C437.081 956.717 428.083 954.896 419.3 952.754C410.302 950.398 401.518 947.827 392.948 945.043C384.379 942.258 375.916 939.045 367.561 935.403C359.206 931.976 351.065 928.12 343.138 923.836C335.211 919.766 327.499 915.268 320 910.341C312.502 905.414 305.218 900.273 298.148 894.918C291.078 889.349 284.33 883.458 277.902 877.246C271.261 871.248 264.941 864.822 258.942 857.967C252.944 851.327 247.052 844.365 241.268 837.082C235.483 829.799 229.699 822.409 223.915 814.911C218.344 807.2 212.774 799.381 207.204 791.456C201.42 783.316 195.742 775.176 190.172 767.036C184.388 758.896 178.496 750.542 172.497 741.973C166.284 733.619 160.072 725.158 153.859 716.59C147.432 708.236 140.683 699.775 133.613 691.206C126.758 682.638 119.688 674.07 112.404 665.501C105.119 657.147 97.8354 648.686 90.5513 640.118C83.2672 631.549 76.0902 622.981 69.0204 614.413C61.9505 606.059 55.202 597.597 48.7749 589.029C42.3477 580.461 36.3491 571.892 30.7789 563.324C25.2087 554.756 20.3883 546.08 16.3178 537.298C12.033 528.729 8.49811 520.054 5.71302 511.272C2.92792 502.703 1.21402 494.028 0.571302 485.245C-0.285651 476.463 -0.178532 467.68 0.892659 458.898C2.17809 450.115 4.21335 441.226 6.99844 432.229C9.78354 423.446 13.3185 414.557 17.6032 405.56C21.6738 396.349 26.387 387.245 31.7429 378.248C37.0989 369.037 42.7762 359.827 48.7749 350.616C54.7735 341.405 60.9864 332.194 67.4136 322.983C73.8407 313.558 80.375 304.132 87.0164 294.707C93.6578 285.068 100.192 275.429 106.619 265.789C113.046 256.15 119.259 246.511 125.258 236.871C131.042 227.018 136.827 217.271 142.611 207.632C148.181 197.778 153.644 188.032 159 178.392C164.571 168.967 170.034 159.542 175.39 150.117C180.746 140.906 186.209 131.909 191.779 123.127C197.135 114.344 202.705 105.883 208.489 97.7431C214.274 89.6032 220.165 81.8917 226.164 74.6086C232.377 67.3256 238.804 60.578 245.445 54.366C252.087 47.9397 259.05 42.1561 266.334 37.0151C273.832 31.6599 281.545 26.9474 289.471 22.8774C297.398 18.8075 305.646 15.3801 314.216 12.5954C322.785 9.59652 331.462 7.13312 340.246 5.20525C349.244 3.27738 358.349 1.88503 367.561 1.0282C376.773 0.171366 385.986 -0.149946 395.198 0.0642624C404.41 0.27847 413.622 0.921094 422.835 1.99213C432.261 3.06317 441.473 4.56263 450.471 6.4905C459.684 8.41837 468.682 10.7747 477.465 13.5594C486.249 16.3441 494.926 19.4501 503.495 22.8774C511.851 26.5189 520.206 30.3747 528.561 34.4446C536.916 38.7288 545.165 43.1201 553.306 47.6184C561.447 52.1168 569.588 56.8294 577.729 61.7562C585.87 66.6829 594.011 71.6097 602.152 76.5365C610.507 81.4633 618.862 86.3901 627.218 91.3168C635.573 96.0294 644.143 100.742 652.926 105.455C661.71 110.167 670.708 114.666 679.92 118.95C689.133 123.234 698.559 127.304 708.2 131.16C717.84 134.801 727.695 138.443 737.765 142.084C747.619 145.511 757.582 148.832 767.651 152.045C777.72 155.472 787.682 158.899 797.537 162.327C807.392 165.54 817.033 169.074 826.459 172.93C836.1 176.572 845.312 180.534 854.096 184.819C862.88 188.889 871.342 193.387 879.483 198.314C887.41 203.241 894.801 208.596 901.657 214.379C908.512 220.377 914.832 226.803 920.617 233.658C926.187 240.727 931.114 248.331 935.399 256.471C939.684 264.397 943.433 272.858 946.647 281.855C949.86 291.066 952.538 300.491 954.681 310.13C956.823 319.984 958.537 330.159 959.822 340.655C961.108 351.151 962.072 361.861 962.715 372.786C963.357 383.711 963.786 394.85 964 406.203C964 417.556 963.893 428.909 963.679 440.262C963.464 451.829 963.036 463.289 962.393 474.642C961.965 486.209 961.322 497.669 960.465 509.022C959.822 520.375 959.072 531.728 958.216 543.081C957.144 554.22 955.966 565.252 954.681 576.177C953.395 587.315 951.895 598.24 950.182 608.95C948.468 619.661 946.54 630.264 944.397 640.76C942.041 651.256 939.47 661.538 936.685 671.606C933.9 681.674 930.686 691.528 927.044 701.167C923.616 710.806 919.76 720.124 915.475 729.121C911.19 738.332 906.477 747.222 901.335 755.79Z" fill="#FBCFE8"/>
</svg>
