<svg width="142" height="102" viewBox="0 0 142 102" fill="none" xmlns="http://www.w3.org/2000/svg">
    <path fill-rule="evenodd" clip-rule="evenodd" d="M87.1323 16.6054C87.1323 7.43448 97.2476 0 109.725 0C122.203 0 132.318 7.43448 132.318 16.6054C132.318 25.7762 122.203 33.2108 109.725 33.2108C97.2476 33.2108 87.1323 25.7762 87.1323 16.6054ZM109.725 9.48879C104.378 9.48879 100.043 12.675 100.043 16.6054C100.043 20.5357 104.378 23.722 109.725 23.722C115.073 23.722 119.408 20.5357 119.408 16.6054C119.408 12.675 115.073 9.48879 109.725 9.48879ZM55.9823 21.6062C57.5858 21.1981 59.3434 21.2705 60.8748 21.8077L96.3678 34.2584C98.4089 34.9744 99.7913 36.4233 100.012 38.0776C100.232 39.732 99.2586 41.3505 97.4454 42.3439L69.3354 57.7451L97.1367 71.1964C98.6244 71.9162 99.6414 73.0559 99.9469 74.3456C100.252 75.6353 99.8192 76.9604 98.75 78.0074L76.1839 100.103C74.0438 102.199 69.9975 102.623 67.1463 101.05C64.2951 99.4767 63.7187 96.5028 65.8588 94.4072L84.3029 76.3472L54.5451 61.9493C52.7869 61.0986 51.7035 59.6714 51.642 58.125C51.5806 56.5786 52.5488 55.1073 54.2364 54.1826L81.153 39.4353L57.704 31.2095L34.3761 37.1463C31.0073 38.0036 27.3307 36.6914 26.1642 34.2154C24.9978 31.7393 26.7831 29.0371 30.1519 28.1798L55.9823 21.6062ZM140.249 31.067C142.69 32.9765 142.563 35.9791 139.965 37.7733L120.605 51.143C118.575 52.5453 115.549 52.8317 113.101 51.8533L104.446 48.3937C101.314 47.1419 100.156 44.261 101.859 41.9592C103.562 39.6573 107.482 38.8061 110.614 40.0579L115.167 41.8781L131.125 30.8581C133.723 29.0639 137.808 29.1574 140.249 31.067ZM51.8175 63.9365C54.657 65.5208 55.2114 68.4971 53.0558 70.5841L43.4709 79.8636C42.9352 80.3822 42.2601 80.8142 41.4874 81.1328L9.61412 94.2728C6.5048 95.5547 2.57037 94.7412 0.826322 92.4559C-0.917726 90.1706 0.189047 87.2789 3.29837 85.997L34.0003 73.3399L42.773 64.8466C44.9287 62.7596 48.978 62.3521 51.8175 63.9365Z" fill="white"/>
</svg>
