<svg width="100" height="92" viewBox="0 0 100 92" fill="none" xmlns="http://www.w3.org/2000/svg">
<path fill-rule="evenodd" clip-rule="evenodd" d="M60.4164 19.1667C60.4164 11.7568 66.9457 5.75 74.9998 5.75C83.0538 5.75 89.5831 11.7568 89.5831 19.1667C89.5831 26.5764 83.0539 32.5833 74.9998 32.5833C66.9457 32.5833 60.4164 26.5764 60.4164 19.1667ZM74.9998 13.4167C71.548 13.4167 68.7498 15.991 68.7498 19.1667C68.7498 22.3423 71.548 24.9167 74.9998 24.9167C78.4515 24.9167 81.2498 22.3423 81.2498 19.1667C81.2498 15.991 78.4515 13.4167 74.9998 13.4167ZM40.3096 23.2072C41.3446 22.8775 42.4791 22.936 43.4676 23.37L66.3778 33.4298C67.6953 34.0083 68.5876 35.179 68.7299 36.5156C68.8722 37.8523 68.2438 39.16 67.0733 39.9627L48.9288 52.4064L66.8741 63.2747C67.8344 63.8563 68.4908 64.777 68.688 65.8191C68.8852 66.8611 68.6056 67.9318 67.9154 68.7777L53.3494 86.6307C51.968 88.3239 49.3561 88.6662 47.5157 87.3953C45.6753 86.1243 45.3033 83.7215 46.6847 82.0283L58.5901 67.4363L39.3818 55.8032C38.247 55.1159 37.5477 53.9627 37.508 52.7133C37.4683 51.4638 38.0933 50.2751 39.1826 49.528L56.5569 37.6126L41.4209 30.9664L26.3631 35.7631C24.1885 36.4558 21.8154 35.3956 21.0624 33.395C20.3095 31.3945 21.4619 29.2111 23.6364 28.5184L40.3096 23.2072ZM94.7026 30.8512C96.2783 32.3941 96.1962 34.8201 94.5192 36.2697L82.0227 47.0721C80.712 48.2051 78.7589 48.4365 77.1789 47.646L71.592 44.8507C69.5705 43.8393 68.8229 41.5116 69.9223 39.6518C71.0217 37.7919 73.5517 37.1042 75.5733 38.1156L78.5127 39.5863L88.8129 30.6825C90.4899 29.2328 93.1268 29.3083 94.7026 30.8512ZM37.6213 57.4088C39.4541 58.689 39.812 61.0937 38.4205 62.7799L32.2336 70.2775C31.8879 70.6965 31.4521 71.0456 30.9533 71.3029L10.3796 81.9197C8.37258 82.9554 5.83296 82.2982 4.70721 80.4517C3.58145 78.6053 4.29585 76.2688 6.30288 75.2331L26.1205 65.0065L31.7832 58.1441C33.1746 56.4579 35.7884 56.1287 37.6213 57.4088Z" fill="#C13D88"/>
</svg>
